<?xml version="1.0" encoding="UTF-8"?><svg xmlns="http://www.w3.org/2000/svg" viewBox="0 0 517.03 117.19"><defs><style>.d{fill:#fff;}</style></defs><g id="a"/><g id="b"><g id="c"><g><path class="d" d="M14.98,8.22H.7c-.39,0-.7,.32-.7,.7v1.57c0,.39,.32,.7,.7,.7H6.35V31.65c0,.39,.32,.7,.7,.7h1.57c.39,0,.7-.32,.7-.7V11.2h5.65c.39,0,.7-.32,.7-.7v-1.57c0-.39-.32-.7-.7-.7Z"/><path class="d" d="M44.19,8.18h-1.57c-.39,0-.7,.32-.7,.7v12.7h-11.26V8.89c0-.39-.32-.7-.7-.7h-1.57c-.39,0-.7,.32-.7,.7V31.65c0,.39,.32,.7,.7,.7h1.57c.39,0,.7-.32,.7-.7v-7.05h11.26v7.05c0,.39,.32,.7,.7,.7h1.57c.39,0,.7-.32,.7-.7V8.89c0-.39-.32-.7-.7-.7Z"/><path class="d" d="M72.1,31.71v-1.64c0-.39-.32-.7-.7-.7h-11.49v-4.77h9.99c.39,0,.7-.32,.7-.7v-1.57c0-.39-.32-.7-.7-.7h-9.99V11.23h11.49c.39,0,.7-.32,.7-.7v-1.57c0-.39-.32-.7-.7-.7h-13.8c-.39,0-.7,.32-.7,.7V31.71c0,.39,.32,.7,.7,.7h13.8c.39,0,.7-.32,.7-.7Z"/><path class="d" d="M213.76,32.48c.08,0,.15-.01,.23-.04,.29-.1,.48-.37,.48-.67V8.92c0-.39-.32-.7-.7-.7h-1.57c-.39,0-.7,.32-.7,.7V25.03l-12.94-16.84c-.18-.24-.5-.34-.79-.24-.29,.1-.48,.37-.48,.67V31.65c0,.39,.32,.7,.7,.7h1.57c.39,0,.7-.32,.7-.7V15.37l12.94,16.84c.14,.18,.34,.28,.56,.28Z"/><path class="d" d="M240.7,31.65c0,.39,.32,.7,.7,.7h1.57c.39,0,.7-.32,.7-.7V8.89c0-.39-.32-.7-.7-.7h-1.57c-.39,0-.7,.32-.7,.7v12.7h-11.26V8.89c0-.39-.32-.7-.7-.7h-1.57c-.39,0-.7,.32-.7,.7V31.65c0,.39,.32,.7,.7,.7h1.57c.39,0,.7-.32,.7-.7v-7.05h11.26v7.05Z"/><path class="d" d="M267.74,8.22c-6.65,0-12.07,5.41-12.07,12.07s5.41,12.07,12.07,12.07,12.07-5.41,12.07-12.07-5.41-12.07-12.07-12.07Zm0,21.16c-5.01,0-9.09-4.08-9.09-9.09s4.08-9.09,9.09-9.09,9.09,4.08,9.09,9.09-4.08,9.09-9.09,9.09Z"/><path class="d" d="M306.97,8.18h-1.57c-.39,0-.7,.31-.7,.7l-.07,15.56c.03,1.76-.9,3.42-2.43,4.33-1.52,.9-3.41,.9-4.93,0-1.53-.91-2.46-2.57-2.43-4.34V8.89c0-.39-.32-.7-.7-.7h-1.57c-.39,0-.7,.32-.7,.7v15.53c-.04,2.85,1.47,5.5,3.93,6.94,1.23,.71,2.6,1.07,3.98,1.07s2.75-.36,3.98-1.07c2.46-1.43,3.96-4.09,3.93-6.93V8.89c0-.39-.32-.7-.7-.7Z"/><path class="d" d="M329.18,18.94l-5.21-3.01c-.98-.57-1.47-1.74-1.18-2.85,.28-1.09,1.28-1.85,2.43-1.85h.5c.89,0,1.72,.47,2.17,1.22,.2,.34,.63,.45,.96,.25l1.37-.8c.16-.09,.28-.25,.33-.43s.02-.37-.08-.53c-.99-1.68-2.81-2.72-4.75-2.72h-.5c-2.49,0-4.68,1.68-5.33,4.1-.65,2.39,.39,4.95,2.53,6.21l5.22,3.01c1.65,.94,2.46,2.88,1.97,4.72-.49,1.84-2.15,3.12-4.03,3.12h-.1c-1.31,0-2.53-.62-3.35-1.69-.11-.15-.28-.25-.47-.27-.19-.03-.37,.02-.52,.14l-1.27,.97c-.31,.24-.37,.68-.13,.99,1.39,1.83,3.48,2.89,5.81,2.89,3.25,0,6.11-2.19,6.96-5.33,.85-3.15-.52-6.48-3.34-8.11Z"/><path class="d" d="M359.25,8.25h-13.8c-.39,0-.7,.32-.7,.7V31.71c0,.39,.32,.7,.7,.7h13.8c.39,0,.7-.32,.7-.7v-1.64c0-.39-.32-.7-.7-.7h-11.49v-4.77h9.99c.39,0,.7-.32,.7-.7v-1.57c0-.39-.32-.7-.7-.7h-9.99V11.23h11.49c.39,0,.7-.32,.7-.7v-1.57c0-.39-.32-.7-.7-.7Z"/><path class="d" d="M400.85,31.65c0,.39,.32,.7,.7,.7h1.57c.39,0,.7-.32,.7-.7V8.89c0-.39-.32-.7-.7-.7h-1.57c-.39,0-.7,.32-.7,.7v12.7h-11.26V8.89c0-.39-.32-.7-.7-.7h-1.57c-.39,0-.7,.32-.7,.7V31.65c0,.39,.32,.7,.7,.7h1.57c.39,0,.7-.32,.7-.7v-7.05h11.26v7.05Z"/><path class="d" d="M463.59,8.22h-14.27c-.39,0-.7,.32-.7,.7v1.57c0,.39,.32,.7,.7,.7h5.65V31.65c0,.39,.32,.7,.7,.7h1.57c.39,0,.7-.32,.7-.7V11.2h5.65c.39,0,.7-.32,.7-.7v-1.57c0-.39-.32-.7-.7-.7Z"/><path class="d" d="M490.76,8.25h-13.8c-.39,0-.7,.32-.7,.7V31.71c0,.39,.32,.7,.7,.7h13.8c.39,0,.7-.32,.7-.7v-1.64c0-.39-.32-.7-.7-.7h-11.49v-4.77h9.99c.39,0,.7-.32,.7-.7v-1.57c0-.39-.32-.7-.7-.7h-9.99V11.23h11.49c.39,0,.7-.32,.7-.7v-1.57c0-.39-.32-.7-.7-.7Z"/><path class="d" d="M517,30.06c0-.38-.32-.69-.7-.69h-9.82V8.92c0-.39-.32-.7-.7-.7h-1.57c-.39,0-.7,.32-.7,.7V31.68c0,.39,.32,.7,.7,.7h12.13c.19,0,.37-.08,.5-.21,.13-.14,.21-.32,.2-.51l-.03-1.6Z"/><path class="d" d="M113.7,8.22h-14.27c-.39,0-.7,.32-.7,.7v1.57c0,.39,.32,.7,.7,.7h5.65V31.65c0,.39,.32,.7,.7,.7h1.57c.39,0,.7-.32,.7-.7V11.2h5.65c.39,0,.7-.32,.7-.7v-1.57c0-.39-.32-.7-.7-.7Z"/><path class="d" d="M185.13,8.44c-.13-.18-.35-.29-.57-.29h-1.64c-.3,0-.57,.19-.67,.48l-5.55,16.26-5.62-16.52c-.1-.29-.37-.48-.67-.48h0c-.3,0-.57,.19-.67,.48l-5.51,16.45-5.41-16.18c-.1-.29-.37-.48-.67-.48h-1.67c-.23,0-.44,.11-.57,.29-.13,.18-.17,.42-.1,.64l7.75,23.19c.1,.29,.37,.48,.67,.48s.57-.19,.67-.48l5.52-16.5,5.58,16.46c.1,.29,.36,.48,.67,.48s.57-.19,.67-.48l7.89-23.16c.07-.22,.04-.45-.09-.64Z"/><path class="d" d="M427.12,30.39l.05-1.05c-4.68-.37-8.37-4.28-8.37-9.05,0-5.01,4.08-9.09,9.09-9.09s9.09,4.08,9.09,9.09c0,1.42-.34,2.76-.92,3.96,.94,.6,1.76,1.28,2.39,1.88,.96-1.73,1.52-3.72,1.52-5.84,0-6.65-5.41-12.07-12.07-12.07s-12.07,5.41-12.07,12.07,5.04,11.66,11.36,12.03c-.07-.63-.09-1.27-.06-1.93Z"/><path class="d" d="M107.72,54.88l-5.12-2.95c-.95-.55-1.42-1.69-1.14-2.76,.27-1.05,1.24-1.78,2.34-1.78h.49c.87,0,1.67,.45,2.09,1.18,.1,.17,.26,.29,.45,.34,.19,.05,.39,.02,.55-.08l1.35-.79c.17-.1,.29-.26,.34-.45,.05-.19,.02-.39-.08-.55-.98-1.66-2.78-2.69-4.7-2.69h-.49c-2.46,0-4.62,1.67-5.27,4.05-.64,2.37,.39,4.89,2.51,6.14l5.12,2.95c1.6,.91,2.39,2.8,1.92,4.59-.48,1.79-2.09,3.03-3.92,3.03-2.81,0-4.45-2.63-6.33-4.21-.6-.5-1.19-1-1.75-1.44-1.74-1.36-2.9-4.38-2.87-6.51,0-.02,0-.03,0-.05,.61-.52,1.02-1.28,1.07-2.15,.04-.81-.23-1.6-.78-2.21-.55-.61-1.3-.97-2.11-1.01-.81-.03-1.6,.23-2.21,.78s-.97,1.29-1.01,2.11c-.09,1.64,1.15,3.04,2.77,3.2,.07,.9,.31,2.51,1.13,4.37-2.21-.74-4.61-1.22-6.99-1.37-.33-.48-.39-1.43-.44-2.29-.02-.44-.05-.87-.1-1.26-.5-3.72-2.76-6.54-6.36-7.94l-2.62-1.02c-.39-.15-1.05-.41-1.78-.22-.6,.15-1.08,.56-1.36,1.13-1.03,2.14,.9,6.62,.92,6.67,1.18,2.66,2.82,4.51,4.9,5.53-1.87,.5-3.57,1.32-4.99,2.48-.28-.22-.58-.4-.93-.51-.77-.26-1.6-.2-2.33,.16-.73,.37-1.28,.99-1.53,1.77-.26,.78-.2,1.6,.16,2.33,.36,.73,.99,1.28,1.77,1.53,.32,.11,.65,.16,.97,.16,1.28,0,2.47-.81,2.9-2.09,.2-.59,.21-1.21,.04-1.8,3.57-2.82,8.54-2.62,12.9-1.83,.32,.06,.63,.12,.94,.18-2.12,.63-3.89,2.15-5.27,4.55-.02,.04-2.15,3.82-1.42,5.83,.21,.57,.62,.99,1.16,1.2,.25,.09,.5,.13,.73,.13,.37,0,.7-.09,.93-.15l2.37-.65c3.31-.91,5.56-3.19,6.35-6.42,.05-.23,.1-.45,.15-.69,.15-.73,.31-1.41,.65-1.84,.39-.47,3.75,2.94,4.07,3.25,1.84,1.76,3.46,3.34,6.22,3.34h.07c3.21,0,6.03-2.17,6.87-5.27,.84-3.11-.51-6.4-3.29-8.01Zm-35.32,7.56c-.19,.58-.83,.89-1.4,.7h0c-.58-.19-.89-.82-.7-1.4,.09-.28,.29-.51,.56-.64,.16-.08,.32-.12,.49-.12,.12,0,.24,.02,.35,.06,.28,.09,.51,.29,.64,.56,.13,.26,.15,.56,.06,.84Zm9.65-6.64c-.78-.02-1.46-.13-2.08-.35-1.94-.66-3.42-2.2-4.52-4.7-.63-1.41-1.2-3.83-1-4.59,.1,.03,.22,.08,.28,.1l2.62,1.02c2.83,1.1,4.52,3.21,4.91,6.1,.04,.33,.06,.69,.08,1.07,.02,.44,.05,.9,.11,1.36-.14,0-.27-.01-.4-.02Zm8.83,7.13c-.04,.21-.09,.42-.14,.62-.59,2.42-2.22,4.06-4.72,4.74l-2.37,.65s-.04,.01-.07,.02c.02-.78,.68-2.6,1.28-3.64,1.17-2.03,2.56-3.2,4.26-3.59,.38-.09,.79-.13,1.23-.13,.18,0,.37,0,.56,.02,.07,0,.17,.02,.28,.05-.13,.42-.22,.86-.31,1.26Zm.29-11.22c-.61-.03-1.08-.56-1.05-1.17,.01-.29,.14-.57,.37-.76,.2-.18,.47-.28,.74-.28,.02,0,.04,0,.06,0,.3,.01,.57,.14,.77,.36,.2,.22,.3,.51,.28,.8-.03,.61-.55,1.12-1.17,1.05Z"/><path class="d" d="M137.22,44.38h-13.55c-.4,0-.73,.33-.73,.73v22.35c0,.4,.33,.73,.73,.73h13.55c.4,0,.73-.33,.73-.73v-1.61c0-.4-.33-.73-.73-.73h-11.25v-4.61h9.77c.4,0,.73-.33,.73-.73v-1.54c0-.4-.33-.73-.73-.73h-9.77v-10.12h11.25c.4,0,.73-.33,.73-.73v-1.54c0-.4-.33-.73-.73-.73Z"/><path class="d" d="M168.27,63.22c-.12-.15-.3-.25-.5-.27-.2-.02-.39,.04-.54,.16-1.55,1.28-3.49,2-5.49,2.03-.07-.02-.14-.03-.21-.03-4.9,0-8.88-3.99-8.88-8.88s3.99-8.88,8.88-8.88c1.97,0,3.91,.67,5.45,1.88,.15,.12,.35,.17,.54,.15,.19-.02,.37-.12,.49-.28l.95-1.21c.25-.32,.19-.78-.12-1.03-2.07-1.62-4.68-2.52-7.34-2.52-5.29,0-9.85,3.4-11.37,8.46-1.51,5.07,.43,10.43,4.83,13.35,2.03,1.35,4.34,2.01,6.63,2.01,2.69,0,5.36-.91,7.56-2.72,.31-.25,.36-.71,.1-1.03l-.98-1.21Z"/><path class="d" d="M198.03,51.81c-.32-4.21-3.86-7.5-8.05-7.5h-8.2c-.4,0-.73,.33-.73,.73v22.35c0,.4,.33,.73,.73,.73h1.54c.4,0,.73-.33,.73-.73v-6.88h4.75l5.59,7.33c.14,.18,.35,.29,.58,.29h1.97c.28,0,.53-.16,.66-.41,.12-.25,.09-.55-.07-.77l-5.18-6.8c3.55-1.08,5.98-4.53,5.69-8.33Zm-8.05,5.69h-5.93v-10.15h5.93c2.8,0,5.08,2.28,5.08,5.08s-2.28,5.08-5.08,5.08Z"/><path class="d" d="M224.05,44.38h-13.55c-.4,0-.73,.33-.73,.73v22.35c0,.4,.33,.73,.73,.73h13.55c.4,0,.73-.33,.73-.73v-1.61c0-.4-.33-.73-.73-.73h-11.25v-4.61h9.77c.4,0,.73-.33,.73-.73v-1.54c0-.4-.33-.73-.73-.73h-9.77v-10.12h11.25c.4,0,.73-.33,.73-.73v-1.54c0-.4-.33-.73-.73-.73Z"/><path class="d" d="M251.22,44.35h-14.01c-.4,0-.73,.33-.73,.73v1.54c0,.4,.33,.73,.73,.73h5.5v20.04c0,.4,.33,.73,.73,.73h1.54c.4,0,.73-.33,.73-.73v-20.04h5.5c.4,0,.73-.33,.73-.73v-1.54c0-.4-.33-.73-.73-.73Z"/><path class="d" d="M297.29,54.71h-9.29c-.4,0-.73,.33-.73,.73v1.54c0,.4,.33,.73,.73,.73h6.98v5.79c-3.08,2.14-7.14,2.16-10.2,0-3.18-2.23-4.52-6.23-3.33-9.94,1.19-3.72,4.6-6.22,8.49-6.22,1.97,0,3.91,.67,5.45,1.88,.15,.12,.35,.17,.54,.15,.19-.02,.37-.12,.49-.28l.95-1.21c.25-.32,.19-.78-.12-1.03-2.07-1.62-4.68-2.52-7.34-2.52-6.56,0-11.89,5.33-11.89,11.89s5.31,11.86,11.85,11.89h.05c2.76,0,5.43-.96,7.53-2.68l.3-.23c.18-.14,.28-.35,.28-.58v-9.19c0-.4-.33-.73-.73-.73Z"/><path class="d" d="M319.6,44.54c-.11-.28-.38-.46-.68-.46h0c-.3,0-.57,.18-.68,.46l-9.16,22.58c-.09,.23-.06,.48,.07,.68,.14,.2,.36,.32,.61,.32h1.67c.3,0,.56-.18,.68-.45l1.78-4.37h9.97l1.75,4.36c.11,.28,.38,.46,.68,.46h1.67c.24,0,.47-.12,.61-.32,.14-.2,.16-.46,.07-.68l-9.06-22.58Zm-4.48,15.75l3.8-9.36,3.75,9.36h-7.55Z"/><path class="d" d="M356.7,51.81c-.32-4.21-3.86-7.5-8.05-7.5h-8.2c-.4,0-.73,.33-.73,.73v22.35c0,.4,.33,.73,.73,.73h1.54c.4,0,.73-.33,.73-.73v-6.88h4.75l5.59,7.33c.14,.18,.35,.29,.58,.29h1.97c.28,0,.53-.16,.65-.41,.12-.25,.1-.55-.07-.77l-5.18-6.8c3.55-1.08,5.98-4.53,5.69-8.33Zm-8.05,5.69h-5.93v-10.15h5.93c2.8,0,5.08,2.28,5.08,5.08s-2.28,5.08-5.08,5.08Z"/><path class="d" d="M373.19,44.35c-.07-.02-.15-.03-.22-.03h-4.46c-.4,0-.73,.33-.73,.73v22.35c0,.4,.33,.73,.73,.73h4.46c6.56,0,11.89-5.33,11.89-11.89s-5.21-11.77-11.67-11.89Zm-.22,20.77h-2.19v-17.77h2.19c4.9,0,8.88,3.99,8.88,8.88s-3.99,8.88-8.88,8.88Z"/><path class="d" d="M410.18,44.38h-13.55c-.4,0-.73,.33-.73,.73v22.35c0,.4,.33,.73,.73,.73h13.55c.4,0,.73-.33,.73-.73v-1.61c0-.4-.33-.73-.73-.73h-11.25v-4.61h9.77c.4,0,.73-.33,.73-.73v-1.54c0-.4-.33-.73-.73-.73h-9.77v-10.12h11.25c.4,0,.73-.33,.73-.73v-1.54c0-.4-.33-.73-.73-.73Z"/><path class="d" d="M444.28,33.15s.05-.03,.07-.05c.46,.33,1.01,.53,1.62,.53,1.52,0,2.76-1.24,2.76-2.76s-1.24-2.76-2.76-2.76-2.76,1.24-2.76,2.76c0,.07,.02,.14,.02,.22-.54,.25-2.09,1.04-3.62,2.69-.27-1.66-1.11-3.28-2.52-4.85-.03-.03-2.82-3.07-4.9-3.07-.02,0-.04,0-.06,0-.6,.02-1.12,.28-1.48,.73-.43,.55-.46,1.18-.48,1.56l-.12,2.38c-.16,3.33,1.27,6.1,4.02,7.8,.28,.18,.61,.34,.95,.52,.44,.22,.94,.49,1.27,.76,0,.06,0,.12,0,.19v1.09s0,.07,0,.11v5.8c-1.43-2.08-3.12-3.22-4.03-3.72,.05-.21,.08-.42,.08-.64,0-1.52-1.24-2.76-2.76-2.76s-2.76,1.24-2.76,2.76,1.24,2.76,2.76,2.76c.43,0,.83-.11,1.19-.28,.3,.13,3.72,1.7,5.11,6.37v9.49l-12.63-16.44c-.19-.25-.52-.35-.81-.25-.3,.1-.5,.38-.5,.69v22.61c0,.4,.33,.73,.73,.73h1.54c.4,0,.73-.33,.73-.73v-15.86l12.64,16.44c.14,.18,.36,.29,.58,.29,.08,0,.16-.01,.23-.04,.3-.1,.5-.38,.5-.69v-17.48c.36-.11,.82-.13,1.3-.14,.2,0,.4-.01,.6-.02,2.88-.16,5.17-1.71,6.47-4.38l.91-1.87c.14-.29,.41-.83,.29-1.48-.09-.54-.41-.99-.9-1.28-1.65-.97-5.17,.25-5.21,.26-1.6,.56-2.85,1.37-3.76,2.39,0-.96,0-1.77,0-2.45,1.03-5.98,5.48-7.85,5.68-7.93Zm1.69-3.39c.61,0,1.12,.5,1.12,1.11s-.5,1.12-1.12,1.12-1.11-.5-1.11-1.12,.5-1.11,1.11-1.11Zm-16.38,13.8c-.61,0-1.11-.5-1.11-1.12s.5-1.11,1.11-1.11,1.11,.5,1.11,1.11-.5,1.12-1.11,1.12Zm7.8-8.1c-.05,.53-.19,1.07-.44,1.67l-.02,.05s-.04,.03-.07,.04c-.27-.15-.54-.3-.8-.43-.28-.14-.55-.28-.78-.42-2.03-1.26-3.05-3.24-2.93-5.73l.12-2.38v-.02c.72,.28,2.15,1.4,2.9,2.24,1.51,1.68,2.17,3.3,2.01,4.97Zm1.84,12.17c.06-.54,.17-1.01,.35-1.42,.56-1.3,1.72-2.25,3.54-2.88,.78-.28,2.06-.51,2.8-.51,.03,0,.06,0,.09,0l-.82,1.69c-.92,1.91-2.49,2.97-4.52,3.08-.17,0-.35,.01-.53,.02-.29,0-.59,.01-.91,.04v-.02Z"/><path class="d" d="M152.61,10.69c.17-.33,.19-.73-.03-1.06-3.83-6.03-10.38-9.64-17.5-9.64h0c-7.16,0-13.72,3.63-17.55,9.71-.25,.39-.2,.87,.08,1.22,.08,.23,.23,.43,.46,.56l3.96,2.29c.17,.1,.35,.14,.53,.14,.37,0,.72-.19,.92-.53,.02-.04,.03-.08,.05-.12,0-.01,.02-.01,.03-.02,1.26-1.94,2.95-3.49,4.9-4.56,0,0,.02,0,.03-.01,.02,0,.03-.02,.04-.03,1.98-1.08,4.22-1.66,6.55-1.66s4.59,.59,6.57,1.68c0,0,.01,.01,.02,.02h.02c1.94,1.07,3.63,2.61,4.89,4.53,.01,.02,.03,.03,.04,.04,.02,.05,.03,.1,.06,.15,.2,.34,.55,.53,.92,.53,.18,0,.36-.05,.53-.14l3.96-2.29c.3-.17,.48-.47,.51-.79Zm-30.36,.76l-2.4-1.39c1.44-2.06,3.24-3.78,5.3-5.08l1.39,2.4c-1.65,1.06-3.1,2.43-4.28,4.06Zm11.77-6.53c-1.98,.13-3.89,.63-5.64,1.45l-1.39-2.41c2.17-1.05,4.55-1.67,7.03-1.81v2.77Zm7.76,1.45c-1.76-.82-3.66-1.32-5.64-1.45V2.15c2.48,.14,4.86,.77,7.03,1.81l-1.39,2.41Zm6.14,5.09c-1.18-1.64-2.63-3-4.28-4.06l1.39-2.41c2.05,1.3,3.86,3.02,5.3,5.08l-2.4,1.39Z"/><path class="d" d="M135.09,8.61c-6.63,0-12.02,5.37-12.06,11.98h0s0,.06,0,.08c0,6.65,5.41,12.07,12.07,12.07s12.07-5.41,12.07-12.07-5.41-12.07-12.07-12.07Zm8.3,8.38c-1.32,.5-2.27,1.76-2.27,3.26,0,.04,0,.07,.01,.11h-1.39s-.01-.07-.01-.11c0-2.03,1.25-3.74,3.01-4.47,.25,.39,.47,.79,.66,1.21Zm-8.3-2.37c.4,0,.73,.32,.73,.71,0,.15-.1,.31-.28,.6l-.2,.31c-.08,.13-.17,.27-.25,.4-.08-.13-.16-.27-.25-.4l-.22-.35c-.17-.26-.26-.42-.26-.57,0-.39,.33-.71,.73-.71Zm-.82-2.98v1.53c-.93,.34-1.54,1.19-1.54,2.16,0,.61,.28,1.05,.52,1.44l.22,.35c.13,.21,.27,.42,.39,.63l.04,.05c.08,.16,.22,.39,.49,.83,.01,.02,.02,.03,.04,.05,.01,.02,.03,.04,.05,.06,.06,.07,.13,.13,.2,.17l.02,.02h.02s.09,.04,.15,.06h.03s.02,.01,.03,.01c.05,.01,.11,.02,.17,.02s.12-.01,.17-.02c.01,0,.02,0,.06-.01,.06-.02,.11-.04,.16-.06h0l.03-.02c.07-.04,.13-.1,.22-.19l.04-.05s.02-.03,.03-.04l.52-.88v-.02c.13-.2,.26-.41,.39-.61l.25-.39c.22-.35,.5-.8,.5-1.4,0-.96-.62-1.82-1.54-2.16v-1.53c2.09,.19,3.97,1.09,5.41,2.45-2.21,1.18-3.71,3.5-3.71,6.17,0,.04,0,.07,.01,.11h-5.05s.01-.07,.01-.11c0-2.67-1.52-4.98-3.73-6.16,1.44-1.37,3.33-2.27,5.43-2.46Zm-6.8,4.11c1.76,.74,2.99,2.48,2.99,4.5,0,.04,0,.07-.01,.11h-1.36s.01-.07,.01-.11c0-1.51-.96-2.79-2.29-3.29,.19-.42,.41-.83,.66-1.21Zm-1.3,3.23c.48,.23,.82,.7,.82,1.27,0,.04-.01,.07-.01,.11h-.95c.02-.47,.06-.93,.15-1.38Zm8.92,10.79c-4.4,0-8.07-3.14-8.91-7.29h17.81c-.84,4.15-4.51,7.29-8.91,7.29Zm8.93-10.75c.08,.44,.13,.89,.14,1.34h-.92s-.01-.07-.01-.11c0-.55,.33-1.01,.79-1.23Z"/></g><g><path class="d" d="M112.03,116.76h-2.07v-4.26h-4.69v4.26h-2.07v-10.49h2.07v4.23h4.69v-4.23h2.07v10.49Z"/><path class="d" d="M119.8,108.87c.48-.83,1.13-1.48,1.95-1.97,.82-.49,1.71-.73,2.67-.73s1.85,.24,2.67,.73c.82,.49,1.48,1.15,1.97,1.97,.49,.83,.73,1.71,.73,2.66s-.24,1.86-.73,2.68c-.49,.82-1.15,1.47-1.97,1.94s-1.71,.72-2.67,.72-1.86-.24-2.68-.72-1.47-1.13-1.94-1.94-.72-1.71-.72-2.68,.24-1.84,.72-2.66Zm1.85,4.35c.29,.51,.68,.92,1.18,1.22,.5,.3,1.05,.45,1.66,.45s1.13-.15,1.61-.45c.48-.3,.86-.7,1.14-1.21s.41-1.07,.41-1.69-.14-1.2-.43-1.71c-.29-.51-.67-.92-1.16-1.22-.49-.3-1.03-.45-1.63-.45s-1.14,.15-1.63,.45c-.49,.3-.88,.71-1.16,1.22-.28,.51-.43,1.08-.43,1.71s.14,1.17,.43,1.68Z"/><path class="d" d="M142.85,106.28v2h-2.55v8.49h-2.07v-8.49h-2.45v-2h7.07Z"/><path class="d" d="M156.99,106.28v2h-5.09v2.24h4.5v2h-4.5v2.27h5.29v2h-7.35v-10.49h7.15Z"/><path class="d" d="M166.38,106.28v8.49h4.93v2h-7v-10.49h2.07Z"/><path class="d" d="M187.23,115c.21-.2,.45-.31,.71-.31,.25,0,.48,.1,.69,.31,.21,.2,.31,.45,.31,.73s-.1,.54-.31,.73c-.2,.2-.43,.29-.69,.29s-.5-.1-.71-.28c-.21-.19-.31-.44-.31-.74,0-.29,.1-.53,.31-.73Z"/><path class="d" d="M211.81,112.24c.31,.41,.46,.89,.46,1.43,0,1.06-.35,1.85-1.05,2.34-.7,.5-1.57,.75-2.61,.75h-3.49v-10.49h3.08c1.11,0,1.99,.23,2.62,.68,.64,.45,.95,1.11,.95,1.96,0,.52-.11,.98-.33,1.37-.22,.39-.53,.71-.93,.95,.55,.26,.98,.59,1.29,1.01Zm-4.62-1.67h1.25c.38,0,.67-.12,.88-.35,.21-.23,.31-.52,.31-.86s-.12-.62-.36-.81c-.24-.18-.56-.28-.98-.28h-1.11v2.29Zm2.5,3.98c.3-.2,.45-.49,.45-.88,0-.74-.59-1.11-1.77-1.11h-1.18v2.28h1.33c.48,0,.88-.1,1.18-.29Z"/><path class="d" d="M224.16,114.71h-3.48l-.85,2.05h-2.04l4.73-10.9h.11l4.73,10.9h-2.39l-.81-2.05Zm-.68-1.74l-1.01-2.55-1.05,2.55h2.07Z"/><path class="d" d="M239.53,116.76l-2.21-3.33h-1.38v3.33h-2.07v-10.49h3.18c1.3,0,2.31,.32,3.03,.95,.72,.63,1.08,1.49,1.08,2.59,0,.65-.14,1.25-.41,1.82s-.69,1.01-1.25,1.33l2.44,3.81h-2.41Zm-3.59-5.33h1.47c.56,0,.97-.16,1.23-.49,.26-.33,.38-.68,.38-1.06s-.11-.74-.33-1.09c-.22-.35-.64-.52-1.27-.52h-1.48v3.16Z"/><path class="d" d="M257.43,115c.21-.2,.45-.31,.71-.31,.25,0,.48,.1,.69,.31,.21,.2,.31,.45,.31,.73s-.1,.54-.31,.73c-.2,.2-.43,.29-.69,.29s-.5-.1-.71-.28c-.21-.19-.31-.44-.31-.74,0-.29,.1-.53,.31-.73Z"/><path class="d" d="M280.97,116.76l-2.21-3.33h-1.38v3.33h-2.07v-10.49h3.18c1.3,0,2.31,.32,3.03,.95,.72,.63,1.08,1.49,1.08,2.59,0,.65-.14,1.25-.41,1.82s-.69,1.01-1.25,1.33l2.44,3.81h-2.41Zm-3.59-5.33h1.47c.56,0,.97-.16,1.23-.49,.26-.33,.38-.68,.38-1.06s-.11-.74-.33-1.09c-.22-.35-.64-.52-1.27-.52h-1.48v3.16Z"/><path class="d" d="M297.23,106.28v2h-5.09v2.24h4.5v2h-4.5v2.27h5.29v2h-7.35v-10.49h7.15Z"/><path class="d" d="M307.78,108.06c-.46,0-.81,.09-1.06,.27-.25,.18-.38,.45-.38,.81,0,.33,.18,.62,.55,.88,.37,.25,.85,.49,1.46,.72,.49,.18,.92,.39,1.27,.62,.35,.23,.64,.55,.88,.96s.35,.93,.35,1.55c0,.54-.14,1.04-.42,1.5-.28,.46-.69,.83-1.23,1.1s-1.19,.41-1.94,.41c-.63,0-1.25-.09-1.87-.28-.62-.18-1.19-.47-1.72-.85l.91-1.61c.36,.27,.77,.48,1.24,.66,.46,.17,.88,.26,1.25,.26,.44,0,.82-.09,1.14-.28,.32-.19,.48-.49,.48-.91,0-.54-.51-1.01-1.52-1.41-.6-.24-1.1-.46-1.5-.68-.4-.22-.74-.53-1.03-.94s-.43-.92-.43-1.54c0-.9,.3-1.63,.89-2.18,.59-.55,1.38-.85,2.37-.9,.78,0,1.43,.09,1.95,.26,.52,.18,1.03,.42,1.53,.75l-.78,1.58c-.91-.5-1.71-.76-2.38-.76Z"/><path class="d" d="M324.21,106.28v2h-2.55v8.49h-2.07v-8.49h-2.45v-2h7.07Z"/><path class="d" d="M335.53,114.71h-3.48l-.85,2.05h-2.04l4.73-10.9h.11l4.73,10.9h-2.39l-.81-2.05Zm-.68-1.74l-1.01-2.55-1.05,2.55h2.07Z"/><path class="d" d="M347.04,113.84c.2,.3,.47,.55,.8,.74,.33,.19,.69,.28,1.07,.28,.41,0,.78-.09,1.13-.28s.61-.44,.81-.74c.19-.3,.29-.62,.29-.95v-6.61h2.04v6.66c0,.75-.19,1.43-.57,2.03-.38,.6-.9,1.07-1.55,1.41-.65,.34-1.37,.51-2.14,.51s-1.49-.17-2.14-.51c-.65-.34-1.16-.81-1.53-1.41s-.56-1.28-.56-2.03v-6.66h2.07v6.61c0,.33,.1,.65,.3,.95Z"/><path class="d" d="M366.31,116.76l-2.21-3.33h-1.38v3.33h-2.07v-10.49h3.18c1.3,0,2.31,.32,3.03,.95,.72,.63,1.08,1.49,1.08,2.59,0,.65-.14,1.25-.41,1.82s-.69,1.01-1.25,1.33l2.44,3.81h-2.41Zm-3.59-5.33h1.47c.56,0,.97-.16,1.23-.49,.26-.33,.38-.68,.38-1.06s-.11-.74-.33-1.09c-.22-.35-.64-.52-1.27-.52h-1.48v3.16Z"/><path class="d" d="M380.6,114.71h-3.48l-.85,2.05h-2.04l4.73-10.9h.11l4.73,10.9h-2.39l-.81-2.05Zm-.68-1.74l-1.01-2.55-1.05,2.55h2.07Z"/><path class="d" d="M399.77,106.28v10.92h-.06l-7.34-6.63,.04,6.2h-2.09v-10.9h.08l7.33,6.73-.04-6.31h2.08Z"/><path class="d" d="M413.82,106.28v2h-2.55v8.49h-2.07v-8.49h-2.45v-2h7.07Z"/></g></g></g></svg>